<svg width="25" height="24" viewBox="0 0 25 24" fill="none" xmlns="http://www.w3.org/2000/svg">
<path d="M17.4166 3.56V2C17.4166 1.59 17.0766 1.25 16.6666 1.25C16.2566 1.25 15.9166 1.59 15.9166 2V3.5H9.41661V2C9.41661 1.59 9.07661 1.25 8.66661 1.25C8.25661 1.25 7.91661 1.59 7.91661 2V3.56C5.21661 3.81 3.90661 5.42 3.70661 7.81C3.68661 8.1 3.92661 8.34 4.20661 8.34H21.1266C21.4166 8.34 21.6566 8.09 21.6266 7.81C21.4266 5.42 20.1166 3.81 17.4166 3.56Z" fill="#63B4FF"/>
<path d="M20.6666 9.84H4.66663C4.11663 9.84 3.66663 10.29 3.66663 10.84V17C3.66663 20 5.16663 22 8.66663 22H16.6666C20.1666 22 21.6666 20 21.6666 17V10.84C21.6666 10.29 21.2166 9.84 20.6666 9.84ZM9.87663 18.21C9.77663 18.3 9.66663 18.37 9.54663 18.42C9.42663 18.47 9.29663 18.5 9.16663 18.5C9.03663 18.5 8.90663 18.47 8.78663 18.42C8.66663 18.37 8.55663 18.3 8.45663 18.21C8.27663 18.02 8.16663 17.76 8.16663 17.5C8.16663 17.24 8.27663 16.98 8.45663 16.79C8.55663 16.7 8.66663 16.63 8.78663 16.58C9.02663 16.48 9.30663 16.48 9.54663 16.58C9.66663 16.63 9.77663 16.7 9.87663 16.79C10.0566 16.98 10.1666 17.24 10.1666 17.5C10.1666 17.76 10.0566 18.02 9.87663 18.21ZM10.0866 14.38C10.0366 14.5 9.96663 14.61 9.87663 14.71C9.77663 14.8 9.66663 14.87 9.54663 14.92C9.42663 14.97 9.29663 15 9.16663 15C9.03663 15 8.90663 14.97 8.78663 14.92C8.66663 14.87 8.55663 14.8 8.45663 14.71C8.36663 14.61 8.29663 14.5 8.24663 14.38C8.19663 14.26 8.16663 14.13 8.16663 14C8.16663 13.87 8.19663 13.74 8.24663 13.62C8.29663 13.5 8.36663 13.39 8.45663 13.29C8.55663 13.2 8.66663 13.13 8.78663 13.08C9.02663 12.98 9.30663 12.98 9.54663 13.08C9.66663 13.13 9.77663 13.2 9.87663 13.29C9.96663 13.39 10.0366 13.5 10.0866 13.62C10.1366 13.74 10.1666 13.87 10.1666 14C10.1666 14.13 10.1366 14.26 10.0866 14.38ZM13.3766 14.71C13.2766 14.8 13.1666 14.87 13.0466 14.92C12.9266 14.97 12.7966 15 12.6666 15C12.5366 15 12.4066 14.97 12.2866 14.92C12.1666 14.87 12.0566 14.8 11.9566 14.71C11.7766 14.52 11.6666 14.26 11.6666 14C11.6666 13.74 11.7766 13.48 11.9566 13.29C12.0566 13.2 12.1666 13.13 12.2866 13.08C12.5266 12.97 12.8066 12.97 13.0466 13.08C13.1666 13.13 13.2766 13.2 13.3766 13.29C13.5566 13.48 13.6666 13.74 13.6666 14C13.6666 14.26 13.5566 14.52 13.3766 14.71Z" fill="#63B4FF"/>
</svg>
