<svg width="18" height="20" viewBox="0 0 18 20" fill="none" xmlns="http://www.w3.org/2000/svg">
<path d="M14 -3.8147e-06H4C1 -3.8147e-06 0 1.79 0 4V20H6V13.94C6 13.42 6.42 13 6.94 13H11.07C11.58 13 12.01 13.42 12.01 13.94V20H18.01V4C18 1.79 17 -3.8147e-06 14 -3.8147e-06ZM11.5 7.25H9.75V9C9.75 9.41 9.41 9.75 9 9.75C8.59 9.75 8.25 9.41 8.25 9V7.25H6.5C6.09 7.25 5.75 6.91 5.75 6.5C5.75 6.09 6.09 5.75 6.5 5.75H8.25V4C8.25 3.59 8.59 3.25 9 3.25C9.41 3.25 9.75 3.59 9.75 4V5.75H11.5C11.91 5.75 12.25 6.09 12.25 6.5C12.25 6.91 11.91 7.25 11.5 7.25Z" fill="#4894FE"/>
</svg>
